<?xml version="1.0" encoding="utf-8"?>
<!-- Generator: Adobe Illustrator 24.1.2, SVG Export Plug-In . SVG Version: 6.00 Build 0)  -->
<svg version="1.1" id="Layer_1" xmlns="http://www.w3.org/2000/svg" xmlns:xlink="http://www.w3.org/1999/xlink" x="0px" y="0px"
	 viewBox="0 0 197.4 91.7" style="enable-background:new 0 0 197.4 91.7;" xml:space="preserve">
<style type="text/css">
	.st0{fill:#2A5D9E;}
	.st1{fill-rule:evenodd;clip-rule:evenodd;fill:#E3282C;}
	.st2{fill-rule:evenodd;clip-rule:evenodd;fill:#2F436A;}
	.st3{fill-rule:evenodd;clip-rule:evenodd;fill:#F9F6F4;}
	.st4{fill:#E9282A;}
	.st5{fill:#FFFFFF;}
</style>
<g>
	<g>
		<g>
			<g>
				<g>
					<path class="st0" d="M106.3,32.5l3.3,0l1.2,0c0.9-0.3,1.9-0.5,2.8-0.8c4.9-1.6,9.8-3.4,14.9-4.4c3.7-0.8,7.4-1.1,11.2-1.3
						l1.1-3.1l-36-0.1c-3.5,0-6.8,1.2-9.4,3.4c-2,1.6-3.6,3.7-4.5,6.3l0,0l-1.7,4.7c5.6-0.8,11.1-1.8,16.6-3.2L106.3,32.5z"/>
					<path class="st0" d="M75.9,73.5l5.1,0c6.2,0,11.8-3.8,13.9-9.7l1.3-3.5c-5.4,1-10.8,1.7-16.2,2.1L75.9,73.5z"/>
					<path class="st0" d="M134.2,40.6l0.8-2.2l2.1-5.7l2.4-6.6c-3.7,0.2-7.5,0.5-11.2,1.3c-5.1,1.1-10,2.9-14.9,4.4
						c-0.9,0.3-1.9,0.5-2.8,0.8l11,0l-1.7,4.5l-0.4,1.2l-15.5-0.1l1.6-4.3c-5.5,1.4-11,2.5-16.6,3.2l-0.4,1l-3.6,9.7l-1.1,3
						l-4.3,11.7c5.4-0.4,10.9-1.1,16.2-2.1l2.3-6.5l2.2-6l15.5,0.1l-3,8.2c0.1,0,0.2-0.1,0.4-0.1c4.9-1.6,9.8-3.4,14.9-4.4
						c0.6-0.1,1.3-0.2,1.9-0.3l1.2-3.3L134.2,40.6z"/>
					<path class="st0" d="M113.4,56.1c-0.1,0-0.2,0.1-0.4,0.1l-1.5,4l-4.9,13.4l5.1,0c5.7,0,10.8-3.2,13.2-8.2
						c0.2-0.5,0.5-1,0.7-1.5l4.6-12.6c-0.6,0.1-1.3,0.2-1.9,0.3C123.3,52.8,118.4,54.6,113.4,56.1L113.4,56.1z"/>
					<path class="st0" d="M42.5,12.9L179,13.4c8.2,0,15.5-5.1,18.4-12.7L60.9,0.2C52.7,0.1,45.3,5.2,42.5,12.9L42.5,12.9z"/>
					<path class="st0" d="M181,48.2l3.6-9.7l-30.3-0.1l-0.6,0l2.1-5.7l11.3,0l9.3,0c1.4,0,2.7-0.2,3.9-0.5c-1.1-0.2-2.2-0.5-3.3-0.8
						c-4.1-1.1-8-2.6-12.1-3.6c-6.3-1.6-12.8-2-19.3-2c-2.3,1.7-4.1,4-5.2,6.8l-2.1,5.7l-0.9,2.4l-2.7,7.3l30.9,0.1l-1.4,3.9
						c0.2,0,0.4,0.1,0.6,0.1c4.1,1,8,2.5,12.1,3.6c0.4,0.1,0.9,0.2,1.3,0.3l2.1-5.8L181,48.2z"/>
					<path class="st0" d="M164.8,27.8c4.1,1,8,2.5,12.1,3.6c1.1,0.3,2.2,0.5,3.3,0.8c4.5-1.2,8.3-4.6,10-9.1l-9.2,0L154.3,23
						c-3.2,0-6.2,1-8.7,2.8C152.1,25.8,158.6,26.2,164.8,27.8L164.8,27.8z"/>
					<path class="st0" d="M164.8,52.2c-0.2,0-0.4-0.1-0.6-0.1l-2.5,7c-1.1,3-4,5.1-7.3,5L139.3,64c-3.2,0-6.1,1-8.6,2.7
						c-2.4,1.7-4.3,4.1-5.3,6.9l35.9,0.1c6.2,0,11.8-3.8,13.9-9.7l2.9-8c-0.4-0.1-0.9-0.2-1.3-0.3C172.8,54.7,168.8,53.2,164.8,52.2
						L164.8,52.2z"/>
					<path class="st0" d="M2.6,70.6l-1,2.7l5,0c2.5,0,4.9-0.6,7-1.8c3.1-1.7,5.6-4.4,6.9-7.9l2.7-7.3c-4.6-1.4-9.2-3-13.6-4.9
						L2.6,70.6z"/>
					<path class="st0" d="M35.6,22.6l3.6-9.7l0.5-1.3c1.2-2.9,4.8-10,11.9-11.4l-7.6,0l-0.9,0L18.5,0C10.3,0,2.9,5,0,12.7l23.8,0.1
						l-3.6,9.7l-2.8,7.5c4.6,1.6,9.2,3,13.9,4.1L35.6,22.6z"/>
					<path class="st0" d="M31.4,34.2c-4.7-1.1-9.3-2.5-13.9-4.1l-5.4,14.7l-2.4,6.7c4.5,1.8,9,3.5,13.6,4.9l5-13.6L31.4,34.2z"/>
					<path class="st0" d="M61.1,62.8l-3.9,10.6l5.1,0c6.2,0,11.8-3.8,13.9-9.7l0.4-1.1C71.5,63,66.3,63.1,61.1,62.8L61.1,62.8z"/>
					<path class="st0" d="M50.6,32.8l0.2-0.4l3.1,0l-2,5.4c5,0.5,10.1,0.8,15.1,0.9l2.3-6.2l3,0L70,38.6c5.3-0.1,10.6-0.4,15.8-1
						L90.4,25l0.8-2.2l-5.1,0c0,0,0,0,0,0l0,0l-13.3,0l-5.1,0l-13.4,0l-4.5,0l-0.6,0c-6.2,0-11.7,3.8-13.9,9.6l-1,2.6
						c4.8,1.1,9.6,1.9,14.5,2.5L50.6,32.8z"/>
					<path class="st0" d="M42.4,63.6l-3.6,9.8l5,0c6.2,0,11.8-3.8,13.9-9.7l0.4-1.1c-5-0.3-9.9-0.9-14.8-1.7L42.4,63.6z"/>
					<path class="st0" d="M67,38.6c-5,0-10.1-0.3-15.1-0.9L43.4,61c4.9,0.8,9.9,1.3,14.8,1.7l2.9-8L67,38.6z"/>
					<path class="st0" d="M85.8,37.6c-5.2,0.6-10.5,0.9-15.8,1l-5.4,14.9l-3.4,9.4c5.2,0.2,10.3,0.2,15.5-0.1L81,50.8L85.8,37.6z"/>
					<path class="st0" d="M34.4,34.9L32,41.5l-5.7,15.7c4.7,1.3,9.4,2.4,14.2,3.3l8.5-23.1C44,36.8,39.2,36,34.4,34.9L34.4,34.9z"/>
					<path class="st0" d="M21.2,70.9l-0.9,2.4l5,0c5.5,0,10.5-3,13.1-7.8c0.3-0.6,0.6-1.2,0.9-1.9l1.1-3.1c-4.8-0.9-9.5-2-14.2-3.3
						L21.2,70.9z"/>
				</g>
				<g>
					<g>
						<path class="st1" d="M8.9,81.6l0.9-3l-4.5,0l-1,3l-1.3,0l-1.1,3.4l1.3,0l-1.8,5.8l4.5,0L7.8,85l1.3,0l1.1-3.4L8.9,81.6z
							 M69.2,82.4c-0.4-0.6-1.1-0.9-2-0.9c-0.6,0-1.1,0.1-1.7,0.4c-0.6,0.2-1.1,0.6-1.7,1.2l-0.2,0.2c0-0.3-0.2-0.6-0.3-0.9
							c-0.4-0.6-1.1-0.9-2-0.9c-0.6,0-1.1,0.1-1.7,0.4c-0.6,0.2-1.1,0.6-1.7,1.2l0.4-1.3l-4.3,0l-2.9,9.2l4.5,0l1.4-4.6
							c0.1-0.4,0.3-0.7,0.5-0.9c0.2-0.2,0.4-0.3,0.7-0.3c0.2,0,0.4,0.1,0.4,0.3c0.1,0.2,0,0.5-0.1,0.9L57,90.9l4.5,0l1.4-4.6
							c0.1-0.4,0.3-0.7,0.5-0.9c0.2-0.2,0.4-0.3,0.7-0.3c0.2,0,0.4,0.1,0.4,0.3c0.1,0.2,0,0.5-0.1,0.9L62.9,91l4.5,0l1.9-6.2
							C69.6,83.8,69.6,83,69.2,82.4z M71.6,81.1l4.6,0l0.7-2.1L71.6,81.1z M71.4,81.8L68.5,91l4.5,0l2.9-9.2L71.4,81.8z M86.6,82.4
							c-0.4-0.6-1.1-0.9-2-0.9c-0.6,0-1.2,0.1-1.7,0.4c-0.5,0.2-1.1,0.6-1.7,1.2l0.4-1.3l-4.3,0L74.4,91l4.5,0l1.5-4.6
							c0.1-0.4,0.3-0.7,0.5-0.9c0.2-0.2,0.4-0.3,0.7-0.3c0.2,0,0.4,0.1,0.4,0.3c0,0.2,0,0.5-0.2,0.9L80.3,91l4.5,0l1.9-6.2
							C87,83.8,87,83,86.6,82.4z M20.5,82.2c-0.4-0.6-1.1-0.9-2-0.9c-0.6,0-1.2,0.1-1.7,0.4c-0.5,0.2-1,0.6-1.5,1l1.3-4.1l-4.5,0
							L8.3,90.8l4.5,0l1.5-4.6c0.1-0.4,0.3-0.7,0.5-0.9c0.2-0.2,0.4-0.3,0.7-0.3c0.2,0,0.4,0.1,0.4,0.3c0,0.2,0,0.5-0.2,0.9
							l-1.4,4.6l4.5,0l1.9-6.2C20.9,83.6,20.9,82.8,20.5,82.2z M22.7,80.9l4.5,0l0.7-2.1L22.7,80.9z M49.2,82.3
							c-0.4-0.6-1.1-0.9-2-0.9c-0.6,0-1.1,0.1-1.7,0.4c-0.6,0.2-1.1,0.6-1.7,1.2l0.4-1.3l-4.3,0L37,90.9l4.5,0l1.4-4.6
							c0.1-0.4,0.3-0.7,0.5-0.9c0.2-0.2,0.4-0.3,0.7-0.3c0.2,0,0.4,0.1,0.4,0.3c0,0.2,0,0.5-0.1,0.9l-1.5,4.6l4.5,0l1.9-6.2
							C49.7,83.7,49.6,82.9,49.2,82.3z M97.9,82.5c-0.4-0.6-1.1-0.9-2-0.9c-0.6,0-1.1,0.1-1.7,0.4c-0.5,0.2-1,0.6-1.5,1l1.3-4.1
							l-4.5,0L85.6,91l4.5,0l1.4-4.6c0.1-0.4,0.3-0.7,0.5-0.9c0.2-0.2,0.4-0.3,0.7-0.3c0.2,0,0.4,0.1,0.4,0.3c0,0.2,0,0.5-0.2,0.9
							l-1.4,4.6l4.5,0l1.9-6.2C98.3,83.9,98.2,83.1,97.9,82.5z M37.5,83.7c-0.3-0.8-0.8-1.3-1.4-1.7c-0.7-0.4-1.5-0.6-2.5-0.6
							c-0.7,0-1.4,0.1-2.1,0.3c-0.7,0.2-1.3,0.5-2,1c-0.7,0.5-1.3,1-1.8,1.6c-0.5,0.6-0.9,1.3-1.1,2c-0.2,0.7-0.3,1.3-0.2,2
							c0.1,0.6,0.4,1.2,0.7,1.7c0.4,0.4,0.8,0.7,1.4,1c0.6,0.2,1.2,0.3,1.9,0.3c1.3,0,2.4-0.2,3.5-0.8c1-0.5,1.9-1.3,2.6-2.3l-4-0.3
							c-0.2,0.2-0.3,0.4-0.5,0.5c-0.2,0.1-0.4,0.2-0.6,0.2c-0.3,0-0.6-0.1-0.7-0.3c-0.1-0.2-0.1-0.6,0.1-1l0-0.2l6.4,0
							c0-0.1,0-0.1,0.1-0.2c0-0.1,0.1-0.2,0.1-0.3c0.2-0.6,0.3-1.1,0.3-1.5C37.7,84.5,37.6,84.1,37.5,83.7z M33.5,85l-2,0
							c0.2-0.3,0.4-0.6,0.6-0.8c0.2-0.2,0.5-0.3,0.8-0.3c0.3,0,0.5,0.1,0.6,0.3C33.6,84.4,33.6,84.6,33.5,85z M22.6,81.6l-2.9,9.2
							l4.5,0l2.9-9.2L22.6,81.6z"/>
						<polygon class="st2" points="101.6,78.9 167.2,79.1 163.3,91.7 97.7,91.4 						"/>
						<path class="st3" d="M160.7,82.4l-0.9,2.9c-0.1,0.2-0.2,0.4-0.3,0.5c-0.1,0.1-0.3,0.2-0.4,0.2c-0.1,0-0.2-0.1-0.3-0.2
							c0-0.1,0-0.3,0.1-0.6l0.9-2.9l-2.7,0l-1.2,3.8c-0.2,0.6-0.2,1.1,0.1,1.5c0.2,0.4,0.7,0.6,1.3,0.6c0.4,0,0.7-0.1,1-0.2
							c0.3-0.1,0.6-0.3,0.9-0.6l-0.8,2.6c0.8,0,2.9-0.2,3.4-2.2l1.7-5.4L160.7,82.4z M155.9,82.6l0.6-1.9l-2.7,0l-0.6,1.9l-0.8,0
							l-0.6,2.1l0.8,0l-1.1,3.6l2.7,0l1.1-3.6l0.8,0l0.6-2.1L155.9,82.6z M137.9,82.5l-0.2,0.8c-0.2-0.3-0.3-0.5-0.6-0.7
							c-0.3-0.2-0.5-0.2-0.9-0.2c-0.7,0-1.3,0.3-1.9,0.8c-0.6,0.6-1,1.3-1.3,2.2c-0.3,0.9-0.3,1.6,0,2.1c0.3,0.6,0.7,0.9,1.4,0.9
							c0.4,0,0.7-0.1,1.1-0.3c0.4-0.2,0.7-0.4,1.1-0.8l-0.3,0.9l2.5,0l1.8-5.7L137.9,82.5z M137,85.4c-0.1,0.2-0.2,0.4-0.4,0.6
							c-0.2,0.1-0.4,0.2-0.6,0.2c-0.2,0-0.4-0.1-0.4-0.2c-0.1-0.2-0.1-0.3,0-0.6c0.1-0.3,0.2-0.4,0.4-0.6c0.2-0.2,0.4-0.2,0.6-0.2
							c0.2,0,0.3,0.1,0.4,0.2C137.1,84.9,137.1,85.1,137,85.4z M127.5,84.1c-0.1-0.4-0.2-0.7-0.5-1c-0.2-0.3-0.5-0.5-0.8-0.6
							c-0.3-0.1-0.7-0.2-1.2-0.2c-0.4,0-0.9,0.1-1.3,0.2c-0.4,0.1-0.8,0.3-1.2,0.6c-0.4,0.3-0.8,0.6-1.1,1c-0.3,0.4-0.5,0.8-0.7,1.2
							c-0.1,0.4-0.2,0.8-0.1,1.2c0.1,0.4,0.2,0.7,0.5,1c0.2,0.3,0.5,0.5,0.8,0.6c0.3,0.1,0.7,0.2,1.2,0.2c0.4,0,0.9-0.1,1.3-0.2
							c0.4-0.1,0.8-0.3,1.2-0.6c0.4-0.3,0.8-0.6,1.1-1c0.3-0.4,0.5-0.8,0.6-1.2C127.5,84.9,127.5,84.5,127.5,84.1z M124.7,85.3
							c-0.1,0.2-0.2,0.4-0.4,0.6c-0.2,0.1-0.3,0.2-0.6,0.2c-0.2,0-0.3-0.1-0.4-0.2c-0.1-0.1-0.1-0.3,0-0.6c0.1-0.2,0.2-0.4,0.4-0.6
							c0.2-0.1,0.4-0.2,0.6-0.2c0.2,0,0.3,0.1,0.4,0.2C124.8,84.9,124.8,85.1,124.7,85.3z M144.5,82.6l0.6-1.9
							c-1.1,0.2-2.2,0.3-3.3,1.8l-0.8,0l-0.6,2.1l0.8,0l-1.1,3.6l2.7,0l1.1-3.6l0.8,0l0.7-2.1L144.5,82.6z M106.6,82.4l-0.2,0.8
							c-0.2-0.3-0.3-0.5-0.6-0.7c-0.3-0.2-0.5-0.2-0.9-0.2c-0.7,0-1.3,0.3-1.9,0.8c-0.6,0.6-1,1.3-1.3,2.2c-0.3,0.9-0.3,1.6,0,2.1
							c0.3,0.6,0.7,0.9,1.4,0.9c0.4,0,0.7-0.1,1.1-0.3c0.4-0.2,0.7-0.4,1.1-0.8l-0.3,0.9l2.5,0l1.8-5.7L106.6,82.4z M105.8,85.2
							c-0.1,0.2-0.2,0.4-0.4,0.6c-0.2,0.1-0.4,0.2-0.6,0.2c-0.2,0-0.4-0.1-0.4-0.2c-0.1-0.2-0.1-0.3,0-0.6c0.1-0.3,0.2-0.4,0.4-0.6
							c0.2-0.2,0.4-0.2,0.6-0.2c0.2,0,0.3,0.1,0.4,0.2C105.8,84.8,105.8,85,105.8,85.2z M120.5,82.5l0.6-1.9l-2.7,0l-0.6,1.9l-0.8,0
							l-0.7,2.1l0.8,0l-1.1,3.6l2.7,0l1.1-3.6l0.8,0l0.6-2.1L120.5,82.5z M113.7,82.3l-0.9,2.9c-0.1,0.2-0.2,0.4-0.3,0.5
							c-0.1,0.1-0.3,0.2-0.4,0.2c-0.2,0-0.2-0.1-0.3-0.2c0-0.1,0-0.3,0.1-0.6l0.9-2.9l-2.7,0l-1.2,3.8c-0.2,0.6-0.2,1.1,0.1,1.5
							c0.2,0.4,0.7,0.6,1.3,0.6c0.4,0,0.7-0.1,1-0.2c0.3-0.2,0.7-0.4,1-0.7l-0.2,0.8l2.7,0l1.8-5.6L113.7,82.3z M131.4,84.7
							c-0.1,0-0.1,0-0.2,0c-0.4-0.1-0.6-0.2-0.5-0.4c0-0.1,0.1-0.2,0.2-0.2c0.1-0.1,0.2-0.1,0.3-0.1c0.2,0,0.3,0,0.5,0.1
							c0.2,0.1,0.4,0.2,0.6,0.4l1.2-1.7c-0.3-0.1-0.6-0.3-0.9-0.3c-0.3-0.1-0.7-0.1-1.1-0.1c-0.8,0-1.5,0.2-2.1,0.6
							c-0.6,0.4-1,0.9-1.2,1.4c-0.1,0.4-0.1,0.8,0,1c0.2,0.3,0.5,0.4,1,0.6c0.1,0,0.1,0,0.2,0.1c0.3,0.1,0.4,0.2,0.4,0.3
							c0,0.1-0.1,0.2-0.2,0.2s-0.2,0.1-0.4,0.1c-0.2,0-0.4-0.1-0.6-0.2c-0.2-0.1-0.4-0.3-0.7-0.5l-1.3,1.8c0.3,0.2,0.7,0.4,1.1,0.4
							c0.4,0.1,0.9,0.2,1.3,0.2c0.8,0,1.6-0.2,2.2-0.6c0.6-0.4,1.1-0.9,1.3-1.5c0.1-0.4,0.1-0.8-0.1-1
							C132.2,85,131.9,84.8,131.4,84.7z M151.4,83.8c-0.2-0.5-0.5-0.8-0.9-1.1c-0.4-0.3-0.9-0.4-1.5-0.4c-0.4,0-0.9,0.1-1.3,0.2
							c-0.4,0.1-0.8,0.3-1.2,0.6c-0.4,0.3-0.8,0.6-1.1,1c-0.3,0.4-0.5,0.8-0.7,1.2c-0.1,0.4-0.2,0.8-0.1,1.2c0.1,0.4,0.2,0.7,0.5,1
							c0.2,0.3,0.5,0.4,0.8,0.6c0.3,0.1,0.7,0.2,1.2,0.2c0.8,0,1.5-0.2,2.2-0.5c0.7-0.3,1.2-0.8,1.6-1.4l-2.5-0.2
							c-0.1,0.1-0.2,0.3-0.3,0.3c-0.1,0.1-0.2,0.1-0.4,0.1c-0.2,0-0.3-0.1-0.4-0.2c-0.1-0.2,0-0.4,0-0.6l0-0.1l3.9,0
							c0,0,0-0.1,0-0.1c0-0.1,0-0.1,0.1-0.2c0.1-0.3,0.2-0.7,0.2-0.9C151.5,84.3,151.4,84.1,151.4,83.8z M149,84.6l-1.2,0
							c0.1-0.2,0.2-0.4,0.4-0.5c0.1-0.1,0.3-0.2,0.5-0.2c0.2,0,0.3,0,0.4,0.2C149,84.2,149,84.4,149,84.6z"/>
					</g>
				</g>
			</g>
			<g>
				<path class="st4" d="M131.8,13.2l47.2,0.2c8.2,0,15.5-5.1,18.4-12.7l-47.2-0.2C142,0.4,134.7,5.5,131.8,13.2L131.8,13.2z"/>
				<g>
					<path class="st5" d="M149,3.1l-2.4,6.7l0,0l-2.4-6.7l-0.8,0l2.7,7.4l0.8,0l2.8-7.4L149,3.1z"/>
					<path class="st5" d="M150.4,3.1l0,7.4l0.7,0l0-7.4L150.4,3.1z"/>
					<path class="st5" d="M153.4,10l0-2.9l4.1,0l0-0.6l-4.1,0l0-2.7l4.4,0l0-0.6l-5.2,0l0,7.4l5.2,0l0-0.6L153.4,10z"/>
					<path class="st5" d="M158.1,3.2l0,0.6l2.6,0l0,6.8l0.7,0l0-6.8l2.6,0l0-0.6L158.1,3.2z"/>
					<path class="st5" d="M169.8,3.2l0,6.3l0,0l-4.3-6.3l-0.8,0l0,7.4l0.7,0l0-6.3l0,0l4.3,6.3l0.8,0l0-7.4L169.8,3.2z"/>
					<path class="st5" d="M175,3.2l-0.8,0l-3,7.4l0.7,0l0.9-2.3l3.4,0l0.9,2.3l0.8,0L175,3.2z M173.1,7.8l1.5-3.8l1.4,3.8L173.1,7.8
						z"/>
					<path class="st5" d="M184.8,3.3l-2.6,6.5l-2.6-6.5l-1,0l0,7.4l0.7,0l0-6.4l0,0l2.5,6.4l0.7,0l2.6-6.4l0,0l0,6.4l0.7,0l0-7.4
						L184.8,3.3z"/>
				</g>
			</g>
		</g>
	</g>
</g>
</svg>
