<?xml version="1.0" encoding="utf-8"?>
<!-- Generator: Adobe Illustrator 24.1.2, SVG Export Plug-In . SVG Version: 6.00 Build 0)  -->
<svg version="1.1" xmlns="http://www.w3.org/2000/svg" xmlns:xlink="http://www.w3.org/1999/xlink" x="0px" y="0px"
	 viewBox="0 0 176.1 81.7" style="enable-background:new 0 0 176.1 81.7;" xml:space="preserve">
<style type="text/css">
	.st0{fill:#FFFFFF;}
	.st1{fill-rule:evenodd;clip-rule:evenodd;fill:#E3282C;}
	.st2{fill-rule:evenodd;clip-rule:evenodd;fill:#F9F6F4;}
</style>
<g id="Layer_2">
</g>
<g id="Layer_1">
	<g>
		<path class="st0" d="M93.5,20.7c-3.1,0-6,1.1-8.4,3c-1.8,1.5-3.2,3.3-4,5.6l0,0l-1.5,4.2l-0.3,0.9L76,43.1l-1,2.6l-3.8,10.4
			L67.7,66l4.5,0c5.5,0,10.5-3.4,12.4-8.6l1.1-3.1l2.1-5.8l1.9-5.3l13.8,0l-2.7,7.3c0,0,0,0,0,0l-1.3,3.6l-4.4,11.9l4.5,0
			c5.1,0,9.6-2.9,11.8-7.3c0.2-0.4,0.4-0.8,0.6-1.3l4.1-11.2l1.1-3l2.5-6.7l0.7-2l1.9-5.1l2.2-5.9l1-2.8L93.5,20.7z M107.2,33.5
			l-0.4,1.1l-13.8,0l1.4-3.9l0.5-1.2l3,0l1,0l9.8,0L107.2,33.5z"/>
		<path class="st0" d="M176.1,0.9c-2.5,6.8-9.1,11.4-16.4,11.4L37.9,11.9C40.5,5,47,0.5,54.3,0.5L176.1,0.9z"/>
		<path class="st0" d="M139,29.6l-1.9,5.1l0.5,0l27,0.1l-3.2,8.7l-0.7,1.8l-1.9,5.2l-2.6,7.2c-1.9,5.2-6.9,8.6-12.4,8.6l-32.1-0.1
			c0.9-2.6,2.6-4.7,4.8-6.2c2.2-1.5,4.8-2.4,7.7-2.4l13.5,0c2.9,0,5.5-1.8,6.5-4.5l2.2-6.2l1.2-3.5l-14.1,0l-13.4,0l2.4-6.5l0.8-2.2
			l1.9-5.1c0.9-2.5,2.6-4.6,4.6-6.1c2.2-1.6,4.9-2.6,7.8-2.5l23.8,0.1l8.2,0c-1.5,4.1-4.9,7-8.9,8.1c-1.1,0.3-2.3,0.5-3.5,0.5
			l-8.3,0L139,29.6z"/>
		<path class="st0" d="M46,0.5c-6.3,1.3-9.5,7.6-10.6,10.2L35,11.9l-3.2,8.7L28,30.9l-2.8,7.6l-4.5,12.2c-0.5-0.2-1-0.3-1.5-0.5
			c0.5,0.2,1,0.3,1.5,0.5l-2.4,6.5c-1.1,3.1-3.4,5.5-6.1,7c-1.9,1-4,1.6-6.3,1.6l-4.5,0l0.9-2.4l6.2-17l2.2-6l4.8-13.1l2.5-6.7
			l3.2-8.7L0,11.7C2.6,4.9,9.1,0.3,16.5,0.4l21.9,0.1l0.8,0L46,0.5z"/>
		<path class="st0" d="M81.4,20.7l-0.7,2l-4.1,11.3l-4.3,11.8l-3.9,10.6l-0.3,1c-1.9,5.2-6.9,8.7-12.4,8.6l-4.5,0l3.5-9.5l3.1-8.4
			l4.9-13.3l2-5.5l-2.7,0l-2,5.6l-5.2,14.3l-2.6,7.2l-0.3,1c-1.9,5.2-6.9,8.7-12.4,8.6l-4.5,0l3.2-8.7l0.9-2.3l7.6-20.7l1.8-4.8
			l-2.8,0l-0.1,0.4l-1.5,4.1l-7.5,20.6l-1,2.8c-0.2,0.6-0.5,1.1-0.8,1.7c-2.3,4.3-6.7,7-11.7,7l-4.5,0l0.8-2.2l4.5-12.2l5.1-14
			l2.2-5.9l0.9-2.4c1.9-5.2,6.9-8.6,12.4-8.6l0.5,0l4,0l12,0l4.5,0l11.9,0v0c0,0,0,0,0,0L81.4,20.7z"/>
	</g>
	<path class="st1" d="M8,73.2l0.8-2.7l-4,0L4,73.2l-1.1,0l-0.9,3l1.1,0l-1.6,5.2l4,0L7,76.2l1.1,0l0.9-3L8,73.2z M61.8,73.9
		c-0.3-0.5-0.9-0.8-1.8-0.8c-0.5,0-1,0.1-1.5,0.3c-0.5,0.2-1,0.6-1.5,1l-0.2,0.2c0-0.3-0.1-0.5-0.3-0.8c-0.3-0.5-0.9-0.8-1.8-0.8
		c-0.5,0-1,0.1-1.5,0.3c-0.5,0.2-1,0.6-1.5,1l0.3-1.1l-3.9,0l-2.6,8.2l4,0l1.3-4.1c0.1-0.3,0.3-0.6,0.4-0.8c0.2-0.2,0.4-0.3,0.6-0.3
		c0.2,0,0.3,0.1,0.4,0.2c0.1,0.2,0,0.4-0.1,0.8l-1.3,4.1l4,0l1.3-4.1c0.1-0.3,0.3-0.6,0.4-0.8c0.2-0.2,0.4-0.3,0.6-0.3
		c0.2,0,0.3,0.1,0.4,0.2c0.1,0.2,0,0.4-0.1,0.8l-1.3,4.1l4,0l1.7-5.5C62.2,75.1,62.1,74.4,61.8,73.9z M63.9,72.7l4.1,0l0.6-1.8
		L63.9,72.7z M63.7,73.4l-2.6,8.2l4,0l2.6-8.2L63.7,73.4z M77.3,73.9c-0.3-0.5-0.9-0.8-1.8-0.8c-0.5,0-1,0.1-1.5,0.3
		c-0.5,0.2-1,0.6-1.5,1l0.3-1.1l-3.9,0l-2.6,8.2l4,0l1.3-4.1c0.1-0.3,0.2-0.6,0.4-0.8c0.2-0.2,0.4-0.3,0.6-0.3
		c0.2,0,0.3,0.1,0.4,0.2c0,0.2,0,0.4-0.1,0.8l-1.3,4.1l4,0l1.7-5.5C77.6,75.2,77.6,74.5,77.3,73.9z M18.3,73.7
		c-0.3-0.5-0.9-0.8-1.8-0.8c-0.5,0-1,0.1-1.5,0.3c-0.4,0.2-0.9,0.5-1.3,0.9l1.2-3.7l-4,0L7.4,81.4l4,0l1.3-4.1
		c0.1-0.3,0.2-0.6,0.4-0.8c0.2-0.2,0.4-0.3,0.6-0.3c0.2,0,0.3,0.1,0.4,0.2c0,0.2,0,0.4-0.1,0.8l-1.3,4.1l4,0l1.7-5.5
		C18.6,75,18.6,74.3,18.3,73.7z M20.3,72.6l4,0l0.6-1.8L20.3,72.6z M43.9,73.8C43.6,73.3,43,73,42.1,73c-0.5,0-1,0.1-1.5,0.3
		c-0.5,0.2-1,0.6-1.5,1l0.3-1.1l-3.9,0L33,81.5l4,0l1.3-4.1c0.1-0.3,0.3-0.6,0.4-0.8c0.2-0.2,0.4-0.3,0.6-0.3c0.2,0,0.3,0.1,0.4,0.2
		c0,0.2,0,0.4-0.1,0.8l-1.3,4.1l4,0L44,76C44.3,75.1,44.3,74.3,43.9,73.8z M87.3,74c-0.3-0.5-0.9-0.8-1.8-0.8c-0.5,0-1,0.1-1.5,0.3
		c-0.4,0.2-0.9,0.5-1.3,0.9l1.2-3.7l-4,0l-3.4,10.9l4,0l1.3-4.1c0.1-0.3,0.3-0.6,0.4-0.8c0.2-0.2,0.4-0.3,0.6-0.3
		c0.2,0,0.3,0.1,0.4,0.2c0,0.2,0,0.4-0.1,0.8l-1.3,4.1l4,0l1.7-5.5C87.7,75.2,87.7,74.5,87.3,74z M33.4,75.1
		c-0.3-0.7-0.7-1.2-1.3-1.5C31.6,73.2,30.8,73,30,73c-0.6,0-1.3,0.1-1.9,0.3c-0.6,0.2-1.2,0.5-1.7,0.9c-0.6,0.4-1.1,0.9-1.6,1.5
		c-0.4,0.6-0.8,1.2-1,1.8c-0.2,0.6-0.2,1.2-0.2,1.8c0.1,0.6,0.3,1.1,0.7,1.5c0.3,0.4,0.7,0.7,1.2,0.9c0.5,0.2,1.1,0.3,1.7,0.3
		c1.1,0,2.2-0.2,3.1-0.7c0.9-0.5,1.7-1.2,2.3-2L29,78.7c-0.1,0.2-0.3,0.4-0.5,0.5c-0.2,0.1-0.4,0.2-0.5,0.2c-0.3,0-0.5-0.1-0.6-0.3
		c-0.1-0.2-0.1-0.5,0.1-0.9l0-0.1l5.7,0c0-0.1,0-0.1,0.1-0.2c0-0.1,0.1-0.2,0.1-0.3c0.2-0.5,0.2-0.9,0.2-1.4
		C33.6,75.8,33.6,75.4,33.4,75.1z M29.9,76.2l-1.8,0c0.1-0.3,0.3-0.5,0.5-0.7c0.2-0.2,0.4-0.2,0.7-0.2c0.3,0,0.5,0.1,0.6,0.2
		C30,75.7,30,75.9,29.9,76.2z M20.1,73.2l-2.6,8.2l4,0l2.6-8.2L20.1,73.2z"/>
	<path class="st2" d="M143.4,73.9l-0.8,2.6c-0.1,0.2-0.2,0.4-0.3,0.5c-0.1,0.1-0.2,0.2-0.4,0.2c-0.1,0-0.2-0.1-0.2-0.1
		c0-0.1,0-0.3,0.1-0.5l0.8-2.6l-2.4,0l-1.1,3.4c-0.2,0.6-0.2,1,0,1.3s0.6,0.5,1.1,0.5c0.3,0,0.6-0.1,0.9-0.2
		c0.3-0.1,0.5-0.3,0.8-0.6l-0.7,2.3c0.7,0,2.6-0.1,3-1.9l1.5-4.8L143.4,73.9z M139.1,74.1l0.5-1.7l-2.5,0l-0.5,1.7l-0.7,0l-0.6,1.9
		l0.7,0l-1,3.2l2.5,0l1-3.2l0.7,0l0.6-1.9L139.1,74.1z M123.1,74l-0.2,0.7c-0.1-0.3-0.3-0.5-0.5-0.6c-0.2-0.1-0.5-0.2-0.8-0.2
		c-0.6,0-1.2,0.3-1.7,0.7c-0.5,0.5-0.9,1.2-1.2,2c-0.2,0.8-0.2,1.4,0,1.9c0.2,0.5,0.6,0.8,1.2,0.8c0.3,0,0.6-0.1,1-0.2
		c0.3-0.2,0.7-0.4,1-0.7l-0.2,0.8l2.3,0l1.6-5.1L123.1,74z M122.3,76.5c-0.1,0.2-0.2,0.4-0.3,0.5c-0.2,0.1-0.3,0.2-0.5,0.2
		s-0.3-0.1-0.4-0.2c-0.1-0.1-0.1-0.3,0-0.5c0.1-0.2,0.2-0.4,0.3-0.5c0.2-0.1,0.3-0.2,0.5-0.2c0.2,0,0.3,0.1,0.4,0.2
		C122.4,76.1,122.4,76.3,122.3,76.5z M113.8,75.4c-0.1-0.3-0.2-0.7-0.4-0.9c-0.2-0.2-0.4-0.4-0.7-0.5c-0.3-0.1-0.7-0.2-1.1-0.2
		c-0.4,0-0.8,0.1-1.1,0.2c-0.4,0.1-0.7,0.3-1.1,0.5c-0.4,0.2-0.7,0.6-1,0.9c-0.3,0.3-0.5,0.7-0.6,1.1c-0.1,0.4-0.2,0.7-0.1,1.1
		c0.1,0.3,0.2,0.6,0.4,0.9c0.2,0.2,0.4,0.4,0.7,0.5c0.3,0.1,0.7,0.2,1,0.2c0.4,0,0.8,0,1.2-0.2c0.4-0.1,0.7-0.3,1.1-0.5
		c0.4-0.3,0.7-0.6,1-0.9c0.3-0.3,0.5-0.7,0.6-1.1C113.8,76.2,113.8,75.8,113.8,75.4z M111.3,76.5c-0.1,0.2-0.2,0.4-0.3,0.5
		c-0.2,0.1-0.3,0.2-0.5,0.2c-0.2,0-0.3-0.1-0.4-0.2s-0.1-0.3,0-0.5c0.1-0.2,0.2-0.4,0.3-0.5c0.2-0.1,0.3-0.2,0.5-0.2
		c0.2,0,0.3,0.1,0.4,0.2C111.4,76.2,111.4,76.3,111.3,76.5z M129,74l0.5-1.7c-1,0.1-2,0.3-3,1.6l-0.7,0l-0.6,1.9l0.7,0l-1,3.2l2.5,0
		l1-3.2l0.7,0l0.6-1.9L129,74z M95.2,73.9L95,74.6c-0.1-0.3-0.3-0.5-0.5-0.6c-0.2-0.1-0.5-0.2-0.8-0.2c-0.6,0-1.2,0.3-1.7,0.7
		c-0.5,0.5-0.9,1.2-1.2,2c-0.2,0.8-0.2,1.4,0,1.9c0.2,0.5,0.6,0.8,1.2,0.8c0.3,0,0.6-0.1,1-0.2c0.3-0.2,0.7-0.4,1-0.7L93.7,79l2.3,0
		l1.6-5.1L95.2,73.9z M94.4,76.4c-0.1,0.2-0.2,0.4-0.3,0.5c-0.2,0.1-0.3,0.2-0.5,0.2c-0.2,0-0.3-0.1-0.4-0.2c-0.1-0.1-0.1-0.3,0-0.5
		c0.1-0.2,0.2-0.4,0.3-0.5c0.2-0.1,0.3-0.2,0.5-0.2c0.2,0,0.3,0.1,0.4,0.2C94.5,76,94.5,76.2,94.4,76.4z M107.5,74l0.5-1.7l-2.5,0
		l-0.5,1.7l-0.7,0l-0.6,1.9l0.7,0l-1,3.2l2.5,0l1-3.2l0.7,0l0.6-1.9L107.5,74z M101.5,73.8l-0.8,2.6c-0.1,0.2-0.2,0.4-0.3,0.5
		c-0.1,0.1-0.2,0.2-0.4,0.2c-0.1,0-0.2-0.1-0.2-0.1c0-0.1,0-0.3,0.1-0.5l0.8-2.6l-2.5,0l-1,3.4c-0.2,0.6-0.2,1,0,1.3
		c0.2,0.3,0.6,0.5,1.1,0.5c0.3,0,0.6-0.1,0.9-0.2c0.3-0.1,0.6-0.3,0.9-0.6l-0.2,0.7l2.4,0l1.6-5L101.5,73.8z M117.3,75.9
		c-0.1,0-0.1,0-0.2,0c-0.4-0.1-0.5-0.2-0.5-0.3c0-0.1,0.1-0.1,0.2-0.2c0.1-0.1,0.2-0.1,0.3-0.1c0.1,0,0.3,0,0.4,0.1
		c0.2,0.1,0.3,0.2,0.5,0.3l1.1-1.5c-0.2-0.1-0.5-0.2-0.8-0.3c-0.3-0.1-0.6-0.1-1-0.1c-0.7,0-1.3,0.2-1.9,0.5
		c-0.5,0.3-0.9,0.8-1.1,1.3c-0.1,0.4-0.1,0.7,0,0.9c0.2,0.2,0.4,0.4,0.9,0.5c0.1,0,0.1,0,0.2,0.1c0.3,0.1,0.4,0.2,0.3,0.3
		c0,0.1-0.1,0.2-0.2,0.2c-0.1,0.1-0.2,0.1-0.3,0.1c-0.2,0-0.3-0.1-0.5-0.2c-0.2-0.1-0.4-0.2-0.6-0.4l-1.1,1.6c0.3,0.2,0.6,0.3,1,0.4
		c0.4,0.1,0.8,0.2,1.2,0.2c0.7,0,1.4-0.2,2-0.5c0.6-0.4,1-0.8,1.1-1.4c0.1-0.4,0.1-0.7-0.1-0.9C118,76.2,117.7,76,117.3,75.9z
		 M135.1,75.2c-0.2-0.4-0.4-0.7-0.8-1c-0.4-0.2-0.8-0.3-1.4-0.3c-0.4,0-0.8,0-1.1,0.2c-0.4,0.1-0.7,0.3-1.1,0.5
		c-0.4,0.3-0.7,0.6-1,0.9c-0.3,0.3-0.5,0.7-0.6,1.1c-0.1,0.4-0.2,0.7-0.1,1.1c0.1,0.3,0.2,0.7,0.4,0.9c0.2,0.2,0.5,0.4,0.8,0.5
		c0.3,0.1,0.7,0.2,1,0.2c0.7,0,1.3-0.2,1.9-0.4c0.6-0.3,1.1-0.7,1.4-1.3l-2.2-0.2c-0.1,0.1-0.2,0.2-0.3,0.3s-0.2,0.1-0.3,0.1
		c-0.2,0-0.3-0.1-0.4-0.2c-0.1-0.1,0-0.3,0-0.6l0-0.1l3.5,0c0,0,0-0.1,0-0.1c0-0.1,0-0.1,0.1-0.2c0.1-0.3,0.1-0.6,0.1-0.8
		C135.2,75.6,135.2,75.4,135.1,75.2z M132.9,75.9l-1.1,0c0.1-0.2,0.2-0.3,0.3-0.4c0.1-0.1,0.3-0.1,0.4-0.1c0.2,0,0.3,0,0.4,0.1
		C133,75.5,133,75.7,132.9,75.9z"/>
</g>
</svg>
